<?xml version="1.0" encoding="UTF-8"?>
<svg version="1.1" xmlns="http://www.w3.org/2000/svg" width="225" height="225">
<path d="M0 0 C74.25 0 148.5 0 225 0 C225 74.25 225 148.5 225 225 C150.75 225 76.5 225 0 225 C0 150.75 0 76.5 0 0 Z " fill="#0A0A0A" transform="translate(0,0)"/>
<path d="M0 0 C2.10688472 0.06464639 4.21172865 0.20207778 6.3125 0.375 C7.46363281 0.46523438 8.61476563 0.55546875 9.80078125 0.6484375 C12.32878884 0.92624053 14.55824224 1.35155816 17 2 C17.27880005 3.60887085 17.27880005 3.60887085 17.56323242 5.25024414 C18.26924901 9.30604813 18.99056549 13.35901672 19.71606445 17.41137695 C20.02545207 19.15122168 20.33092272 20.89176843 20.63208008 22.63305664 C22.5688255 33.81204146 25.03893905 44.35017726 29 55 C29.66 55 30.32 55 31 55 C31.13051758 54.1435791 31.26103516 53.2871582 31.39550781 52.40478516 C31.89300721 49.17888056 32.40125931 45.95503302 32.91650391 42.73193359 C33.135896 41.34587666 33.35118197 39.95916248 33.56201172 38.57177734 C36.7332836 17.75560885 36.7332836 17.75560885 43.5625 10.4375 C44.14128906 9.79683594 44.72007812 9.15617187 45.31640625 8.49609375 C48.40519201 5.75130269 51.80969275 5.64966872 55.8203125 5.73046875 C62.68448607 6.57926441 67.25077496 10.66004904 71.46875 15.875 C73.80781058 19.12104325 75.57055009 22.26092963 77 26 C77.2990625 26.77988281 77.598125 27.55976562 77.90625 28.36328125 C80.10258337 35.3895144 80.34238696 42.38409445 80.4375 49.6875 C80.45973633 50.66146729 80.48197266 51.63543457 80.50488281 52.63891602 C80.48005548 60.75400482 78.53504914 67.78577419 73 73.9375 C72.525625 74.48277344 72.05125 75.02804688 71.5625 75.58984375 C68.70425557 78.16940935 66.3781397 78.95187313 62.5625 79.4375 C59 79 59 79 56.25 76.9375 C50.4677376 69.3884352 50.00244275 61.1635061 49 52 C48.85751831 52.95084473 48.85751831 52.95084473 48.7121582 53.92089844 C43.99356016 84.75840683 43.99356016 84.75840683 33.76953125 92.79296875 C29.99813492 95.36551062 26.46527268 95.69978154 22 95 C15.94201672 91.50500965 13.92672785 86.570636 12 80 C10.70327966 74.29272431 10.81620366 68.57215328 10.8125 62.75 C10.80025391 61.78320312 10.78800781 60.81640625 10.77539062 59.8203125 C10.75724861 50.45903404 11.85447688 41.27581665 13 32 C12.88946793 32.82463242 12.77893585 33.64926483 12.66505432 34.49888611 C11.624738 42.25455731 10.58038603 50.00967188 9.53144932 57.76418209 C8.99227141 61.75126271 8.45467939 65.73854404 7.9206543 69.72631836 C7.40563214 73.57175387 6.88651933 77.41661656 6.3645153 81.26111031 C6.16567867 82.73098495 5.96833928 84.20106292 5.77249336 85.67133904 C5.49880674 87.72407143 5.21989715 89.7760289 4.93969727 91.82788086 C4.70320213 93.58327431 4.70320213 93.58327431 4.46192932 95.37413025 C4 98 4 98 3 99 C0.89311528 98.93535361 -1.21172865 98.79792222 -3.3125 98.625 C-4.46363281 98.53476563 -5.61476563 98.44453125 -6.80078125 98.3515625 C-9.32878884 98.07375947 -11.55824224 97.64844184 -14 97 C-14.19110352 95.88141602 -14.38220703 94.76283203 -14.57910156 93.61035156 C-15.30029476 89.40409528 -16.03389737 85.20007761 -16.77099609 80.99658203 C-17.0864849 79.18758661 -17.39874228 77.37802419 -17.70751953 75.56787109 C-20.31013839 59.34221483 -20.31013839 59.34221483 -26 44 C-26.66 44 -27.32 44 -28 44 C-28.10022461 44.71953857 -28.20044922 45.43907715 -28.30371094 46.18041992 C-33.51295474 83.07332403 -33.51295474 83.07332403 -43 91 C-46.90611285 93.32982715 -50.53986322 93.63368064 -55 93 C-62.41760168 90.76765511 -67.39864765 85.4773276 -71.21875 78.90234375 C-72.30466517 76.63590717 -73.17681412 74.3742815 -74 72 C-74.2990625 71.18660156 -74.598125 70.37320313 -74.90625 69.53515625 C-77.02833347 62.68750727 -77.34040884 55.92797926 -77.4375 48.8125 C-77.45973633 47.88606689 -77.48197266 46.95963379 -77.50488281 46.00512695 C-77.47933362 38.05293985 -75.41401853 31.07971082 -70 25.0625 C-69.525625 24.51722656 -69.05125 23.97195312 -68.5625 23.41015625 C-65.84388512 20.95660632 -63.64419875 20.05368323 -60 19.75 C-56.95109468 20.00407544 -55.55015366 20.39229443 -53 22 C-47.41903598 29.32308814 -46.79044215 38.15176695 -46 47 C-45.89977539 46.35562988 -45.79955078 45.71125977 -45.69628906 45.04736328 C-45.22628295 42.07119081 -44.73825126 39.09823157 -44.25 36.125 C-44.09273437 35.11179688 -43.93546875 34.09859375 -43.7734375 33.0546875 C-42.36866689 24.62606382 -40.49686849 15.93300438 -34.5 9.5 C-33.9328125 8.8709375 -33.365625 8.241875 -32.78125 7.59375 C-29.22185425 4.40902749 -25.92590066 3.41314774 -21.09375 3.56640625 C-17.03921621 4.40605784 -14.47822891 6.77895977 -12 10 C-8.06654298 18.21271246 -7.81788536 26.75319118 -7.8125 35.6875 C-7.80025391 36.70650391 -7.78800781 37.72550781 -7.77539062 38.77539062 C-7.75784676 48.27831776 -8.83063576 57.58479592 -10 67 C-9.83420189 65.76305138 -9.83420189 65.76305138 -9.66505432 64.50111389 C-8.624738 56.74544269 -7.58038603 48.99032812 -6.53144932 41.23581791 C-5.99227141 37.24873729 -5.45467939 33.26145596 -4.9206543 29.27368164 C-4.40563214 25.42824613 -3.88651933 21.58338344 -3.3645153 17.73888969 C-3.16567867 16.26901505 -2.96833928 14.79893708 -2.77249336 13.32866096 C-2.49880674 11.27592857 -2.21989715 9.2239711 -1.93969727 7.17211914 C-1.78203384 6.00185684 -1.62437042 4.83159454 -1.46192932 3.62586975 C-1 1 -1 1 0 0 Z " fill="#FAFAFA" transform="translate(111,63)"/>
<path d="M0 0 C0.33 0 0.66 0 1 0 C0.85845864 2.56280208 0.71191438 5.12515485 0.5625 7.6875 C0.50352539 8.7693457 0.50352539 8.7693457 0.44335938 9.87304688 C0.40146484 10.57880859 0.35957031 11.28457031 0.31640625 12.01171875 C0.27974854 12.65584717 0.24309082 13.29997559 0.20532227 13.96362305 C0 16 0 16 -0.51367188 18.30859375 C-1.10807029 21.59807573 -1.11188082 24.70800635 -1.09765625 28.05078125 C-1.0962413 28.70958786 -1.09482635 29.36839447 -1.09336853 30.04716492 C-1.087805 32.13565762 -1.07525947 34.22404011 -1.0625 36.3125 C-1.05748028 37.73502449 -1.0529182 39.15755066 -1.04882812 40.58007812 C-1.03784757 44.05342077 -1.02060835 47.52669961 -1 51 C-2.9789756 47.36383344 -3.5251065 44.11574371 -4 40 C-4.33 40 -4.66 40 -5 40 C-5.3041863 32.27759306 -4.15394629 24.82007076 -3.0625 17.1875 C-2.87782203 15.85227338 -2.69357389 14.51698724 -2.50976562 13.18164062 C-1.13904734 3.41714203 -1.13904734 3.41714203 0 0 Z " fill="#262626" transform="translate(124,92)"/>
</svg>
